<svg width="46.841339" height="48.000000" viewBox="0 0 46.8413 48" fill="none" xmlns="http://www.w3.org/2000/svg" xmlns:xlink="http://www.w3.org/1999/xlink">
	<desc>
			Created with Pixso.
	</desc>
	<defs/>
	<path id="google icon" d="M46.84 24.53C46.84 22.56 46.68 21.12 46.33 19.62L23.89 19.62L23.89 28.53L37.06 28.53C36.8 30.74 35.37 34.08 32.18 36.31L32.13 36.61L39.23 42.13L39.72 42.18C44.23 38 46.84 31.83 46.84 24.53Z" fill="#4285F4" fill-opacity="1.000000" fill-rule="nonzero"/>
	<path id="google icon" d="M23.89 48C30.35 48 35.76 45.86 39.72 42.18L32.18 36.31C30.16 37.73 27.45 38.72 23.89 38.72C17.57 38.72 12.21 34.53 10.3 28.74L10.02 28.77L2.64 34.5L2.54 34.77C6.47 42.61 14.55 48 23.89 48Z" fill="#34A853" fill-opacity="1.000000" fill-rule="nonzero"/>
	<path id="google icon" d="M10.3 28.74C9.79 27.25 9.5 25.65 9.5 24C9.5 22.34 9.79 20.74 10.27 19.25L10.26 18.93L2.79 13.1L2.54 13.22C0.92 16.48 0 20.13 0 24C0 27.86 0.92 31.51 2.54 34.77L10.3 28.74Z" fill="#FBBC05" fill-opacity="1.000000" fill-rule="nonzero"/>
	<path id="google icon" d="M23.89 9.28C28.38 9.28 31.41 11.22 33.13 12.85L39.88 6.23C35.74 2.37 30.35 0 23.89 0C14.55 0 6.47 5.38 2.54 13.22L10.27 19.25C12.21 13.46 17.57 9.28 23.89 9.28Z" fill="#EB4335" fill-opacity="1.000000" fill-rule="nonzero"/>
</svg>
