<svg width="48.000000" height="48.000000" viewBox="0 0 48 48" fill="none" xmlns="http://www.w3.org/2000/svg" xmlns:xlink="http://www.w3.org/1999/xlink">
	<desc>
			Created with Pixso.
	</desc>
	<defs/>
	<path id="tripadvisor icon" d="M24 48C37.25 48 48 37.25 48 24C48 10.74 37.25 0 24 0C10.74 0 0 10.74 0 24C0 37.25 10.74 48 24 48Z" fill="#34E0A1" fill-opacity="1.000000" fill-rule="nonzero"/>
	<path id="tripadvisor icon" d="M38.82 19.31L41.71 16.16L35.29 16.16C32.08 13.97 28.19 12.69 23.99 12.69C19.8 12.69 15.93 13.97 12.72 16.16L6.28 16.16L9.18 19.31C7.4 20.93 6.29 23.27 6.29 25.86C6.29 30.74 10.25 34.71 15.14 34.71C17.46 34.71 19.58 33.81 21.16 32.35L24 35.44L26.83 32.35C28.41 33.81 30.52 34.71 32.85 34.71C37.74 34.71 41.7 30.74 41.7 25.86C41.71 23.26 40.59 20.93 38.82 19.31ZM15.14 31.85C11.83 31.85 9.15 29.17 9.15 25.86C9.15 22.55 11.83 19.87 15.14 19.87C18.45 19.87 21.13 22.55 21.13 25.86C21.13 29.17 18.45 31.85 15.14 31.85ZM24 25.68C24 21.74 21.13 18.36 17.35 16.91C19.39 16.05 21.64 15.58 23.99 15.58C26.35 15.58 28.6 16.05 30.65 16.91C26.86 18.36 24 21.74 24 25.68ZM32.85 31.85C29.54 31.85 26.86 29.17 26.86 25.86C26.86 22.55 29.54 19.87 32.85 19.87C36.16 19.87 38.84 22.55 38.84 25.86C38.84 29.17 36.16 31.85 32.85 31.85ZM32.85 22.71C31.11 22.71 29.71 24.12 29.71 25.85C29.71 27.59 31.11 28.99 32.85 28.99C34.58 28.99 35.99 27.59 35.99 25.85C35.99 24.12 34.58 22.71 32.85 22.71ZM18.28 25.86C18.28 27.59 16.88 29 15.14 29C13.41 29 12 27.59 12 25.86C12 24.12 13.41 22.72 15.14 22.72C16.88 22.71 18.28 24.12 18.28 25.86Z" fill="#121212" fill-opacity="1.000000" fill-rule="nonzero"/>
</svg>
