<svg width="25.411926" height="24.000000" viewBox="0 0 25.4119 24" fill="none" xmlns="http://www.w3.org/2000/svg" xmlns:xlink="http://www.w3.org/1999/xlink">
	<desc>
			Created with Pixso.
	</desc>
	<defs/>
	<path id="Vector" d="M5.33 2.66C5.33 3.37 5.05 4.05 4.55 4.55C4.05 5.05 3.37 5.33 2.66 5.33C1.95 5.33 1.27 5.05 0.78 4.55C0.28 4.05 -0.01 3.37 0 2.66C0 1.95 0.28 1.27 0.78 0.78C1.28 0.28 1.96 -0.01 2.66 0C3.37 0 4.05 0.28 4.55 0.78C5.05 1.28 5.33 1.96 5.33 2.66ZM5.41 7.3L0.08 7.3L0.08 24L5.41 24L5.41 7.3ZM13.83 7.3L8.53 7.3L8.53 24L13.78 24L13.78 15.24C13.78 10.36 20.14 9.9 20.14 15.24L20.14 24L25.41 24L25.41 13.42C25.41 5.2 15.99 5.5 13.78 9.54L13.83 7.3Z" fill="#FFFFFF" fill-opacity="1.000000" fill-rule="nonzero"/>
</svg>
