<svg width="24.000000" height="24.000000" viewBox="0 0 24 24" fill="none" xmlns="http://www.w3.org/2000/svg" xmlns:xlink="http://www.w3.org/1999/xlink">
	<desc>
			Created with Pixso.
	</desc>
	<defs/>
	<path id="Instagram" d="M12 8.39C11.04 8.39 10.12 8.77 9.45 9.45C8.77 10.12 8.39 11.04 8.39 12C8.39 12.95 8.77 13.87 9.45 14.54C10.12 15.22 11.04 15.6 12 15.6C12.95 15.6 13.87 15.22 14.54 14.54C15.22 13.87 15.6 12.95 15.6 12C15.6 11.04 15.22 10.12 14.54 9.45C13.87 8.77 12.95 8.39 12 8.39ZM12 6C13.59 6 15.11 6.63 16.24 7.75C17.36 8.88 18 10.4 18 12C18 13.59 17.36 15.11 16.24 16.24C15.11 17.36 13.59 18 12 18C10.4 18 8.88 17.36 7.75 16.24C6.63 15.11 6 13.59 6 12C6 10.4 6.63 8.88 7.75 7.75C8.88 6.63 10.4 6 12 6ZM19.79 5.7C19.79 6.09 19.64 6.47 19.36 6.76C19.07 7.04 18.69 7.2 18.29 7.2C17.9 7.2 17.52 7.04 17.23 6.76C16.95 6.47 16.79 6.09 16.79 5.7C16.79 5.3 16.95 4.92 17.23 4.63C17.52 4.35 17.9 4.2 18.29 4.2C18.69 4.2 19.07 4.35 19.36 4.63C19.64 4.92 19.79 5.3 19.79 5.7ZM12 2.39C9.03 2.39 8.54 2.4 7.16 2.46C6.22 2.51 5.59 2.64 5 2.86C4.51 3.04 4.07 3.33 3.71 3.71C3.33 4.07 3.04 4.51 2.86 5C2.63 5.59 2.51 6.22 2.46 7.16C2.4 8.49 2.39 8.95 2.39 12C2.39 14.96 2.4 15.45 2.46 16.83C2.51 17.77 2.64 18.4 2.86 18.99C3.07 19.51 3.31 19.88 3.7 20.28C4.11 20.69 4.48 20.93 5 21.13C5.59 21.35 6.22 21.48 7.16 21.53C8.48 21.59 8.95 21.6 12 21.6C14.96 21.6 15.45 21.59 16.83 21.53C17.77 21.48 18.4 21.35 18.99 21.13C19.48 20.95 19.92 20.66 20.28 20.29C20.69 19.88 20.93 19.51 21.13 18.99C21.36 18.4 21.48 17.77 21.53 16.83C21.59 15.5 21.6 15.04 21.6 12C21.6 9.03 21.59 8.54 21.53 7.16C21.48 6.22 21.36 5.59 21.13 5C20.95 4.51 20.66 4.07 20.28 3.71C19.92 3.33 19.48 3.04 18.99 2.86C18.4 2.63 17.77 2.51 16.83 2.46C15.51 2.4 15.04 2.39 12 2.39ZM12 0C15.26 0 15.66 0.01 16.94 0.07C18.22 0.13 19.09 0.33 19.86 0.62C20.65 0.93 21.31 1.34 21.98 2.01C22.59 2.61 23.06 3.33 23.37 4.14C23.66 4.9 23.86 5.77 23.92 7.05C23.98 8.33 24 8.73 24 12C24 15.26 23.98 15.66 23.92 16.94C23.86 18.22 23.66 19.09 23.37 19.85C23.06 20.66 22.59 21.38 21.98 21.98C21.38 22.59 20.66 23.06 19.86 23.37C19.09 23.66 18.22 23.86 16.94 23.92C15.66 23.98 15.26 24 12 24C8.73 24 8.33 23.98 7.05 23.92C5.77 23.86 4.9 23.66 4.14 23.37C3.33 23.06 2.61 22.59 2.01 21.98C1.4 21.38 0.93 20.66 0.63 19.85C0.33 19.09 0.13 18.22 0.07 16.94C0.01 15.66 0 15.26 0 12C0 8.73 0.01 8.33 0.07 7.05C0.13 5.77 0.33 4.9 0.63 4.14C0.93 3.33 1.4 2.61 2.01 2.01C2.61 1.4 3.33 0.93 4.14 0.62C4.9 0.33 5.77 0.13 7.05 0.07C8.33 0.01 8.73 0 12 0Z" fill="#FFFFFF" fill-opacity="1.000000" fill-rule="nonzero"/>
</svg>
