<svg width="18.669922" height="24.000000" viewBox="0 0 18.6699 24" fill="none" xmlns="http://www.w3.org/2000/svg" xmlns:xlink="http://www.w3.org/1999/xlink">
	<desc>
			Created with Pixso.
	</desc>
	<defs/>
	<path id="Vector" d="M7.67 15.87C7.04 19.17 6.27 22.34 3.99 24C3.29 19 5.02 15.25 5.83 11.27C4.45 8.95 6 4.29 8.9 5.44C12.47 6.85 5.8 14.05 10.28 14.95C14.94 15.89 16.85 6.85 13.95 3.91C9.77 -0.33 1.78 3.81 2.76 9.89C3 11.37 4.54 11.83 3.38 13.88C0.7 13.28 -0.1 11.17 0 8.36C0.17 3.75 4.14 0.52 8.13 0.08C13.17 -0.49 17.9 1.93 18.56 6.67C19.29 12.02 16.28 17.82 10.89 17.4C9.43 17.29 8.82 16.56 7.67 15.87Z" fill="#FFFFFF" fill-opacity="1.000000" fill-rule="nonzero"/>
</svg>
