<svg width="19.976929" height="19.078613" viewBox="0 0 19.9769 19.0786" fill="none" xmlns="http://www.w3.org/2000/svg" xmlns:xlink="http://www.w3.org/1999/xlink">
	<desc>
			Created with Pixso.
	</desc>
	<defs/>
	<path id="Vector" d="M9.98 15.98L5.14 18.89C4.93 19.03 4.7 19.09 4.47 19.07C4.24 19.05 4.03 18.97 3.86 18.84C3.68 18.7 3.55 18.53 3.45 18.33C3.35 18.12 3.33 17.89 3.39 17.64L4.67 12.13L0.39 8.42C0.19 8.25 0.07 8.05 0.02 7.83C-0.03 7.6 -0.01 7.38 0.07 7.17C0.14 6.96 0.26 6.78 0.42 6.64C0.57 6.51 0.79 6.42 1.06 6.38L6.72 5.89L8.9 0.69C9 0.46 9.15 0.29 9.36 0.17C9.56 0.05 9.77 0 9.98 0C10.2 0 10.41 0.05 10.61 0.17C10.81 0.29 10.97 0.46 11.06 0.69L13.25 5.89L18.91 6.38C19.18 6.42 19.39 6.51 19.55 6.64C19.71 6.78 19.82 6.96 19.9 7.17C19.98 7.38 19.99 7.6 19.94 7.83C19.9 8.05 19.77 8.25 19.58 8.42L15.29 12.13L16.57 17.64C16.63 17.89 16.61 18.12 16.52 18.33C16.42 18.53 16.28 18.7 16.11 18.84C15.93 18.97 15.73 19.05 15.5 19.07C15.26 19.09 15.04 19.03 14.82 18.89L9.98 15.98Z" fill="#F2C94C" fill-opacity="1.000000" fill-rule="nonzero"/>
</svg>
