<svg width="24.000000" height="19.513672" viewBox="0 0 24 19.5137" fill="none" xmlns="http://www.w3.org/2000/svg" xmlns:xlink="http://www.w3.org/1999/xlink">
	<desc>
			Created with Pixso.
	</desc>
	<defs/>
	<path id="Twitter" d="M23.99 2.31C23.09 2.71 22.14 2.97 21.17 3.09C22.19 2.47 22.96 1.5 23.33 0.36C22.37 0.94 21.31 1.34 20.2 1.56C19.46 0.76 18.48 0.24 17.41 0.06C16.34 -0.12 15.24 0.07 14.28 0.58C13.33 1.09 12.57 1.9 12.12 2.89C11.67 3.88 11.57 4.99 11.81 6.05C9.86 5.95 7.94 5.44 6.19 4.55C4.44 3.67 2.9 2.42 1.67 0.9C1.23 1.65 1 2.51 1 3.38C1 5.09 1.87 6.59 3.19 7.48C2.41 7.45 1.64 7.24 0.96 6.86L0.96 6.92C0.96 8.06 1.35 9.16 2.07 10.04C2.79 10.92 3.8 11.53 4.91 11.75C4.18 11.95 3.42 11.98 2.68 11.84C3 12.81 3.61 13.67 4.44 14.28C5.26 14.9 6.26 15.24 7.28 15.26C6.26 16.06 5.09 16.65 3.84 17C2.59 17.35 1.28 17.45 0 17.29C2.25 18.74 4.87 19.51 7.54 19.51C16.6 19.51 21.55 12 21.55 5.5C21.55 5.29 21.55 5.07 21.54 4.86C22.5 4.16 23.33 3.3 24 2.31L23.99 2.31Z" fill="#FFFFFF" fill-opacity="1.000000" fill-rule="nonzero"/>
</svg>
